<?xml version="1.0" encoding="UTF-8"?>
<svg id="Capa_1" data-name="Capa 1" xmlns="http://www.w3.org/2000/svg" viewBox="0 0 55.09 65.38">
  <defs>
    <style>
      .cls-1 {
        fill: #1d1d1b;
      }
    </style>
  </defs>
  <path class="cls-1" d="M50.43.98c1.78,9.41,3.68,20.55-1.88,29.1-1.53,2.35-3.59,4.24-5.71,6.05s-4.18,3.41-6.37,4.98c-4.4,3.15-9.09,5.92-13.96,8.27-5.53,2.66-11.31,4.76-17.25,6.28-.25.06-1.45.39-1.34.8s1.37.07,1.56.02c11-2.82,21.52-7.46,30.96-13.79,4.63-3.11,9.46-6.56,13.15-10.77,3.43-3.91,5.02-8.86,5.4-13.98.44-5.95-.56-11.92-1.66-17.74-.1-.54-3.02.11-2.9.78h0Z"/>
  <path class="cls-1" d="M9.45,39.55c-2.09,3.47-4.19,6.95-6.28,10.42-.96,1.6-2.1,3.18-2.89,4.86s.22,2.49,1.55,3.33c6.07,3.85,12.93,6.3,20.06,7.19.65.08,1.55-.08,2.05-.55.4-.38.4-.82-.24-.9-6.64-.84-13.1-3.06-18.79-6.6-.58-.36-1.39-.73-1.79-1.29-.55-.77.07-1.63.48-2.32.91-1.54,1.84-3.06,2.76-4.59l5.78-9.59c.64-1.06-2.23-.71-2.67.03h0Z"/>
  <path class="cls-1" d="M50.43.98c1.78,9.41,3.68,20.55-1.88,29.1-1.53,2.35-3.59,4.24-5.71,6.05s-4.18,3.41-6.37,4.98c-4.4,3.15-9.09,5.92-13.96,8.27-5.53,2.66-11.31,4.76-17.25,6.28-.25.06-1.45.39-1.34.8s1.37.07,1.56.02c11-2.82,21.52-7.46,30.96-13.79,4.63-3.11,9.46-6.56,13.15-10.77,3.43-3.91,5.02-8.86,5.4-13.98.44-5.95-.56-11.92-1.66-17.74-.1-.54-3.02.11-2.9.78h0Z"/>
  <path class="cls-1" d="M9.45,39.55c-2.09,3.47-4.19,6.95-6.28,10.42-.96,1.6-2.1,3.18-2.89,4.86s.22,2.49,1.55,3.33c6.07,3.85,12.93,6.3,20.06,7.19.65.08,1.55-.08,2.05-.55.4-.38.4-.82-.24-.9-6.64-.84-13.1-3.06-18.79-6.6-.58-.36-1.39-.73-1.79-1.29-.55-.77.07-1.63.48-2.32.91-1.54,1.84-3.06,2.76-4.59l5.78-9.59c.64-1.06-2.23-.71-2.67.03h0Z"/>
</svg>